<?xml version="1.0" encoding="UTF-8" standalone="no"?>
<!DOCTYPE svg PUBLIC "-//W3C//DTD SVG 1.1//EN"
 "http://www.w3.org/Graphics/SVG/1.1/DTD/svg11.dtd">
<!-- Generated by graphviz version 13.1.2 (0)
 -->
<!-- Title: model Pages: 1 -->
<svg width="366pt" height="713pt"
 viewBox="0.00 0.00 366.00 713.00" xmlns="http://www.w3.org/2000/svg" xmlns:xlink="http://www.w3.org/1999/xlink">
<g id="graph0" class="graph" transform="scale(1 1) rotate(0) translate(4 708.5)">
<title>model</title>
<polygon fill="white" stroke="none" points="-4,4 -4,-708.5 362.25,-708.5 362.25,4 -4,4"/>
<!-- 0 -->
<g id="node1" class="node">
<title>0</title>
<polygon fill="lightyellow" stroke="none" points="235.62,-704.5 122.62,-704.5 122.62,-666 235.62,-666 235.62,-704.5"/>
<polygon fill="none" stroke="black" points="122.62,-666 122.62,-704.5 190.38,-704.5 190.38,-666 122.62,-666"/>
<text xml:space="preserve" text-anchor="start" x="127.62" y="-690" font-family="Linux libertine" font-size="10.00">input&#45;tensor</text>
<text xml:space="preserve" text-anchor="start" x="138.12" y="-675.75" font-family="Linux libertine" font-size="10.00">depth:0</text>
<polygon fill="none" stroke="black" points="190.38,-666 190.38,-704.5 235.62,-704.5 235.62,-666 190.38,-666"/>
<text xml:space="preserve" text-anchor="start" x="195.38" y="-682.88" font-family="Linux libertine" font-size="10.00">(1, 512)</text>
</g>
<!-- 1 -->
<g id="node2" class="node">
<title>1</title>
<polygon fill="aliceblue" stroke="none" points="249.62,-630 108.62,-630 108.62,-581.5 249.62,-581.5 249.62,-630"/>
<polygon fill="none" stroke="black" points="108.62,-581.5 108.62,-630 155.38,-630 155.38,-581.5 108.62,-581.5"/>
<text xml:space="preserve" text-anchor="start" x="121.88" y="-610.5" font-family="Linux libertine" font-size="10.00">long</text>
<text xml:space="preserve" text-anchor="start" x="113.62" y="-596.25" font-family="Linux libertine" font-size="10.00">depth:1</text>
<polygon fill="none" stroke="black" points="155.38,-605.75 155.38,-630 202.12,-630 202.12,-605.75 155.38,-605.75"/>
<text xml:space="preserve" text-anchor="start" x="165.25" y="-615.5" font-family="Linux libertine" font-size="10.00">input:</text>
<polygon fill="none" stroke="black" points="202.12,-605.75 202.12,-630 249.62,-630 249.62,-605.75 202.12,-605.75"/>
<text xml:space="preserve" text-anchor="start" x="207.12" y="-615.5" font-family="Linux libertine" font-size="10.00">(1, 512) </text>
<polygon fill="none" stroke="black" points="155.38,-581.5 155.38,-605.75 202.12,-605.75 202.12,-581.5 155.38,-581.5"/>
<text xml:space="preserve" text-anchor="start" x="160.38" y="-591.25" font-family="Linux libertine" font-size="10.00">output: </text>
<polygon fill="none" stroke="black" points="202.12,-581.5 202.12,-605.75 249.62,-605.75 249.62,-581.5 202.12,-581.5"/>
<text xml:space="preserve" text-anchor="start" x="207.12" y="-591.25" font-family="Linux libertine" font-size="10.00">(1, 512) </text>
</g>
<!-- 0&#45;&gt;1 -->
<g id="edge1" class="edge">
<title>0&#45;&gt;1</title>
<path fill="none" stroke="black" d="M179.12,-666.28C179.12,-658.84 179.12,-649.95 179.12,-641.33"/>
<polygon fill="black" stroke="black" points="182.63,-641.44 179.13,-631.44 175.63,-641.44 182.63,-641.44"/>
</g>
<!-- 2 -->
<g id="node3" class="node">
<title>2</title>
<polygon fill="#c1ffc1" stroke="none" points="266.12,-545.5 92.12,-545.5 92.12,-497 266.12,-497 266.12,-545.5"/>
<polygon fill="none" stroke="black" points="92.12,-497 92.12,-545.5 154.62,-545.5 154.62,-497 92.12,-497"/>
<text xml:space="preserve" text-anchor="start" x="97.12" y="-526" font-family="Linux libertine" font-size="10.00">Embedding</text>
<text xml:space="preserve" text-anchor="start" x="105" y="-511.75" font-family="Linux libertine" font-size="10.00">depth:1</text>
<polygon fill="none" stroke="black" points="154.62,-521.25 154.62,-545.5 201.38,-545.5 201.38,-521.25 154.62,-521.25"/>
<text xml:space="preserve" text-anchor="start" x="164.5" y="-531" font-family="Linux libertine" font-size="10.00">input:</text>
<polygon fill="none" stroke="black" points="201.38,-521.25 201.38,-545.5 266.12,-545.5 266.12,-521.25 201.38,-521.25"/>
<text xml:space="preserve" text-anchor="start" x="215" y="-531" font-family="Linux libertine" font-size="10.00">(1, 512) </text>
<polygon fill="none" stroke="black" points="154.62,-497 154.62,-521.25 201.38,-521.25 201.38,-497 154.62,-497"/>
<text xml:space="preserve" text-anchor="start" x="159.62" y="-506.75" font-family="Linux libertine" font-size="10.00">output: </text>
<polygon fill="none" stroke="black" points="201.38,-497 201.38,-521.25 266.12,-521.25 266.12,-497 201.38,-497"/>
<text xml:space="preserve" text-anchor="start" x="206.38" y="-506.75" font-family="Linux libertine" font-size="10.00">(1, 512, 64) </text>
</g>
<!-- 1&#45;&gt;2 -->
<g id="edge2" class="edge">
<title>1&#45;&gt;2</title>
<path fill="none" stroke="black" d="M179.12,-581.77C179.12,-574.06 179.12,-565.28 179.12,-556.87"/>
<polygon fill="black" stroke="black" points="182.63,-556.91 179.13,-546.91 175.63,-556.91 182.63,-556.91"/>
</g>
<!-- 3 -->
<g id="node4" class="node">
<title>3</title>
<polygon fill="#c1ffc1" stroke="none" points="287.12,-461 71.12,-461 71.12,-412.5 287.12,-412.5 287.12,-461"/>
<polygon fill="none" stroke="black" points="71.12,-412.5 71.12,-461 117.88,-461 117.88,-412.5 71.12,-412.5"/>
<text xml:space="preserve" text-anchor="start" x="84" y="-441.5" font-family="Linux libertine" font-size="10.00">GRU</text>
<text xml:space="preserve" text-anchor="start" x="76.12" y="-427.25" font-family="Linux libertine" font-size="10.00">depth:1</text>
<polygon fill="none" stroke="black" points="117.88,-436.75 117.88,-461 164.62,-461 164.62,-436.75 117.88,-436.75"/>
<text xml:space="preserve" text-anchor="start" x="127.75" y="-446.5" font-family="Linux libertine" font-size="10.00">input:</text>
<polygon fill="none" stroke="black" points="164.62,-436.75 164.62,-461 287.12,-461 287.12,-436.75 164.62,-436.75"/>
<text xml:space="preserve" text-anchor="start" x="198.5" y="-446.5" font-family="Linux libertine" font-size="10.00">(1, 512, 64) </text>
<polygon fill="none" stroke="black" points="117.88,-412.5 117.88,-436.75 164.62,-436.75 164.62,-412.5 117.88,-412.5"/>
<text xml:space="preserve" text-anchor="start" x="122.88" y="-422.25" font-family="Linux libertine" font-size="10.00">output: </text>
<polygon fill="none" stroke="black" points="164.62,-412.5 164.62,-436.75 287.12,-436.75 287.12,-412.5 164.62,-412.5"/>
<text xml:space="preserve" text-anchor="start" x="169.62" y="-422.25" font-family="Linux libertine" font-size="10.00">(1, 512, 512), (4, 1, 256) </text>
</g>
<!-- 2&#45;&gt;3 -->
<g id="edge3" class="edge">
<title>2&#45;&gt;3</title>
<path fill="none" stroke="black" d="M179.12,-497.27C179.12,-489.56 179.12,-480.78 179.12,-472.37"/>
<polygon fill="black" stroke="black" points="182.63,-472.41 179.13,-462.41 175.63,-472.41 182.63,-472.41"/>
</g>
<!-- 4 -->
<g id="node5" class="node">
<title>4</title>
<polygon fill="aliceblue" stroke="none" points="170.25,-376.5 0,-376.5 0,-328 170.25,-328 170.25,-376.5"/>
<polygon fill="none" stroke="black" points="0,-328 0,-376.5 64.75,-376.5 64.75,-328 0,-328"/>
<text xml:space="preserve" text-anchor="start" x="5" y="-357" font-family="Linux libertine" font-size="10.00">__getitem__</text>
<text xml:space="preserve" text-anchor="start" x="14" y="-342.75" font-family="Linux libertine" font-size="10.00">depth:1</text>
<polygon fill="none" stroke="black" points="64.75,-352.25 64.75,-376.5 111.5,-376.5 111.5,-352.25 64.75,-352.25"/>
<text xml:space="preserve" text-anchor="start" x="74.62" y="-362" font-family="Linux libertine" font-size="10.00">input:</text>
<polygon fill="none" stroke="black" points="111.5,-352.25 111.5,-376.5 170.25,-376.5 170.25,-352.25 111.5,-352.25"/>
<text xml:space="preserve" text-anchor="start" x="116.5" y="-362" font-family="Linux libertine" font-size="10.00">(4, 1, 256) </text>
<polygon fill="none" stroke="black" points="64.75,-328 64.75,-352.25 111.5,-352.25 111.5,-328 64.75,-328"/>
<text xml:space="preserve" text-anchor="start" x="69.75" y="-337.75" font-family="Linux libertine" font-size="10.00">output: </text>
<polygon fill="none" stroke="black" points="111.5,-328 111.5,-352.25 170.25,-352.25 170.25,-328 111.5,-328"/>
<text xml:space="preserve" text-anchor="start" x="122.12" y="-337.75" font-family="Linux libertine" font-size="10.00">(1, 256) </text>
</g>
<!-- 3&#45;&gt;4 -->
<g id="edge4" class="edge">
<title>3&#45;&gt;4</title>
<path fill="none" stroke="black" d="M152.69,-412.55C142.49,-403.6 130.69,-393.24 119.82,-383.7"/>
<polygon fill="black" stroke="black" points="122.32,-381.24 112.5,-377.27 117.71,-386.5 122.32,-381.24"/>
</g>
<!-- 5 -->
<g id="node6" class="node">
<title>5</title>
<polygon fill="aliceblue" stroke="none" points="358.25,-376.5 188,-376.5 188,-328 358.25,-328 358.25,-376.5"/>
<polygon fill="none" stroke="black" points="188,-328 188,-376.5 252.75,-376.5 252.75,-328 188,-328"/>
<text xml:space="preserve" text-anchor="start" x="193" y="-357" font-family="Linux libertine" font-size="10.00">__getitem__</text>
<text xml:space="preserve" text-anchor="start" x="202" y="-342.75" font-family="Linux libertine" font-size="10.00">depth:1</text>
<polygon fill="none" stroke="black" points="252.75,-352.25 252.75,-376.5 299.5,-376.5 299.5,-352.25 252.75,-352.25"/>
<text xml:space="preserve" text-anchor="start" x="262.62" y="-362" font-family="Linux libertine" font-size="10.00">input:</text>
<polygon fill="none" stroke="black" points="299.5,-352.25 299.5,-376.5 358.25,-376.5 358.25,-352.25 299.5,-352.25"/>
<text xml:space="preserve" text-anchor="start" x="304.5" y="-362" font-family="Linux libertine" font-size="10.00">(4, 1, 256) </text>
<polygon fill="none" stroke="black" points="252.75,-328 252.75,-352.25 299.5,-352.25 299.5,-328 252.75,-328"/>
<text xml:space="preserve" text-anchor="start" x="257.75" y="-337.75" font-family="Linux libertine" font-size="10.00">output: </text>
<polygon fill="none" stroke="black" points="299.5,-328 299.5,-352.25 358.25,-352.25 358.25,-328 299.5,-328"/>
<text xml:space="preserve" text-anchor="start" x="310.12" y="-337.75" font-family="Linux libertine" font-size="10.00">(1, 256) </text>
</g>
<!-- 3&#45;&gt;5 -->
<g id="edge5" class="edge">
<title>3&#45;&gt;5</title>
<path fill="none" stroke="black" d="M205.56,-412.55C215.76,-403.6 227.56,-393.24 238.43,-383.7"/>
<polygon fill="black" stroke="black" points="240.54,-386.5 245.75,-377.27 235.93,-381.24 240.54,-386.5"/>
</g>
<!-- 6 -->
<g id="node7" class="node">
<title>6</title>
<polygon fill="aliceblue" stroke="none" points="257.5,-292 100.75,-292 100.75,-243.5 257.5,-243.5 257.5,-292"/>
<polygon fill="none" stroke="black" points="100.75,-243.5 100.75,-292 147.5,-292 147.5,-243.5 100.75,-243.5"/>
<text xml:space="preserve" text-anchor="start" x="117.38" y="-272.5" font-family="Linux libertine" font-size="10.00">cat</text>
<text xml:space="preserve" text-anchor="start" x="105.75" y="-258.25" font-family="Linux libertine" font-size="10.00">depth:1</text>
<polygon fill="none" stroke="black" points="147.5,-267.75 147.5,-292 194.25,-292 194.25,-267.75 147.5,-267.75"/>
<text xml:space="preserve" text-anchor="start" x="157.38" y="-277.5" font-family="Linux libertine" font-size="10.00">input:</text>
<polygon fill="none" stroke="black" points="194.25,-267.75 194.25,-292 257.5,-292 257.5,-267.75 194.25,-267.75"/>
<text xml:space="preserve" text-anchor="start" x="199.25" y="-277.5" font-family="Linux libertine" font-size="10.00">2 x (1, 256) </text>
<polygon fill="none" stroke="black" points="147.5,-243.5 147.5,-267.75 194.25,-267.75 194.25,-243.5 147.5,-243.5"/>
<text xml:space="preserve" text-anchor="start" x="152.5" y="-253.25" font-family="Linux libertine" font-size="10.00">output: </text>
<polygon fill="none" stroke="black" points="194.25,-243.5 194.25,-267.75 257.5,-267.75 257.5,-243.5 194.25,-243.5"/>
<text xml:space="preserve" text-anchor="start" x="207.12" y="-253.25" font-family="Linux libertine" font-size="10.00">(1, 512) </text>
</g>
<!-- 4&#45;&gt;6 -->
<g id="edge6" class="edge">
<title>4&#45;&gt;6</title>
<path fill="none" stroke="black" d="M111.56,-328.05C121.76,-319.1 133.56,-308.74 144.43,-299.2"/>
<polygon fill="black" stroke="black" points="146.54,-302 151.75,-292.77 141.93,-296.74 146.54,-302"/>
</g>
<!-- 5&#45;&gt;6 -->
<g id="edge7" class="edge">
<title>5&#45;&gt;6</title>
<path fill="none" stroke="black" d="M246.69,-328.05C236.49,-319.1 224.69,-308.74 213.82,-299.2"/>
<polygon fill="black" stroke="black" points="216.32,-296.74 206.5,-292.77 211.71,-302 216.32,-296.74"/>
</g>
<!-- 7 -->
<g id="node8" class="node">
<title>7</title>
<polygon fill="#c1ffc1" stroke="none" points="250.75,-207.5 107.5,-207.5 107.5,-159 250.75,-159 250.75,-207.5"/>
<polygon fill="none" stroke="black" points="107.5,-159 107.5,-207.5 156.5,-207.5 156.5,-159 107.5,-159"/>
<text xml:space="preserve" text-anchor="start" x="112.5" y="-188" font-family="Linux libertine" font-size="10.00">Dropout</text>
<text xml:space="preserve" text-anchor="start" x="113.62" y="-173.75" font-family="Linux libertine" font-size="10.00">depth:1</text>
<polygon fill="none" stroke="black" points="156.5,-183.25 156.5,-207.5 203.25,-207.5 203.25,-183.25 156.5,-183.25"/>
<text xml:space="preserve" text-anchor="start" x="166.38" y="-193" font-family="Linux libertine" font-size="10.00">input:</text>
<polygon fill="none" stroke="black" points="203.25,-183.25 203.25,-207.5 250.75,-207.5 250.75,-183.25 203.25,-183.25"/>
<text xml:space="preserve" text-anchor="start" x="208.25" y="-193" font-family="Linux libertine" font-size="10.00">(1, 512) </text>
<polygon fill="none" stroke="black" points="156.5,-159 156.5,-183.25 203.25,-183.25 203.25,-159 156.5,-159"/>
<text xml:space="preserve" text-anchor="start" x="161.5" y="-168.75" font-family="Linux libertine" font-size="10.00">output: </text>
<polygon fill="none" stroke="black" points="203.25,-159 203.25,-183.25 250.75,-183.25 250.75,-159 203.25,-159"/>
<text xml:space="preserve" text-anchor="start" x="208.25" y="-168.75" font-family="Linux libertine" font-size="10.00">(1, 512) </text>
</g>
<!-- 6&#45;&gt;7 -->
<g id="edge8" class="edge">
<title>6&#45;&gt;7</title>
<path fill="none" stroke="black" d="M179.12,-243.77C179.12,-236.06 179.12,-227.28 179.12,-218.87"/>
<polygon fill="black" stroke="black" points="182.63,-218.91 179.13,-208.91 175.63,-218.91 182.63,-218.91"/>
</g>
<!-- 8 -->
<g id="node9" class="node">
<title>8</title>
<polygon fill="#c1ffc1" stroke="none" points="249.62,-123 108.62,-123 108.62,-74.5 249.62,-74.5 249.62,-123"/>
<polygon fill="none" stroke="black" points="108.62,-74.5 108.62,-123 155.38,-123 155.38,-74.5 108.62,-74.5"/>
<text xml:space="preserve" text-anchor="start" x="117.38" y="-103.5" font-family="Linux libertine" font-size="10.00">Linear</text>
<text xml:space="preserve" text-anchor="start" x="113.62" y="-89.25" font-family="Linux libertine" font-size="10.00">depth:1</text>
<polygon fill="none" stroke="black" points="155.38,-98.75 155.38,-123 202.12,-123 202.12,-98.75 155.38,-98.75"/>
<text xml:space="preserve" text-anchor="start" x="165.25" y="-108.5" font-family="Linux libertine" font-size="10.00">input:</text>
<polygon fill="none" stroke="black" points="202.12,-98.75 202.12,-123 249.62,-123 249.62,-98.75 202.12,-98.75"/>
<text xml:space="preserve" text-anchor="start" x="207.12" y="-108.5" font-family="Linux libertine" font-size="10.00">(1, 512) </text>
<polygon fill="none" stroke="black" points="155.38,-74.5 155.38,-98.75 202.12,-98.75 202.12,-74.5 155.38,-74.5"/>
<text xml:space="preserve" text-anchor="start" x="160.38" y="-84.25" font-family="Linux libertine" font-size="10.00">output: </text>
<polygon fill="none" stroke="black" points="202.12,-74.5 202.12,-98.75 249.62,-98.75 249.62,-74.5 202.12,-74.5"/>
<text xml:space="preserve" text-anchor="start" x="210.12" y="-84.25" font-family="Linux libertine" font-size="10.00">(1, 75) </text>
</g>
<!-- 7&#45;&gt;8 -->
<g id="edge9" class="edge">
<title>7&#45;&gt;8</title>
<path fill="none" stroke="black" d="M179.12,-159.27C179.12,-151.56 179.12,-142.78 179.12,-134.37"/>
<polygon fill="black" stroke="black" points="182.63,-134.41 179.13,-124.41 175.63,-134.41 182.63,-134.41"/>
</g>
<!-- 9 -->
<g id="node10" class="node">
<title>9</title>
<polygon fill="lightyellow" stroke="none" points="236.38,-38.5 121.88,-38.5 121.88,0 236.38,0 236.38,-38.5"/>
<polygon fill="none" stroke="black" points="121.88,0 121.88,-38.5 197.12,-38.5 197.12,0 121.88,0"/>
<text xml:space="preserve" text-anchor="start" x="126.88" y="-24" font-family="Linux libertine" font-size="10.00">output&#45;tensor</text>
<text xml:space="preserve" text-anchor="start" x="141.12" y="-9.75" font-family="Linux libertine" font-size="10.00">depth:0</text>
<polygon fill="none" stroke="black" points="197.12,0 197.12,-38.5 236.38,-38.5 236.38,0 197.12,0"/>
<text xml:space="preserve" text-anchor="start" x="202.12" y="-16.88" font-family="Linux libertine" font-size="10.00">(1, 75)</text>
</g>
<!-- 8&#45;&gt;9 -->
<g id="edge10" class="edge">
<title>8&#45;&gt;9</title>
<path fill="none" stroke="black" d="M179.12,-74.92C179.12,-66.97 179.12,-57.93 179.12,-49.53"/>
<polygon fill="black" stroke="black" points="182.63,-49.77 179.13,-39.77 175.63,-49.77 182.63,-49.77"/>
</g>
</g>
</svg>
