<?xml version="1.0" encoding="UTF-8" standalone="no"?>
<!DOCTYPE svg PUBLIC "-//W3C//DTD SVG 1.1//EN"
 "http://www.w3.org/Graphics/SVG/1.1/DTD/svg11.dtd">
<!-- Generated by graphviz version 2.43.0 (0)
 -->
<!-- Title: model Pages: 1 -->
<svg width="195pt" height="864pt"
 viewBox="0.00 0.00 195.31 864.00" xmlns="http://www.w3.org/2000/svg" xmlns:xlink="http://www.w3.org/1999/xlink">
<g id="graph0" class="graph" transform="scale(0.83 0.83) rotate(0) translate(4 1040)">
<title>model</title>
<polygon fill="white" stroke="transparent" points="-4,4 -4,-1040 232,-1040 232,4 -4,4"/>
<!-- 0 -->
<g id="node1" class="node">
<title>0</title>
<polygon fill="lightyellow" stroke="transparent" points="173,-1036 55,-1036 55,-1004 173,-1004 173,-1036"/>
<polygon fill="none" stroke="black" points="55,-1004 55,-1036 125,-1036 125,-1004 55,-1004"/>
<text text-anchor="start" x="60" y="-1023" font-family="Linux libertine" font-size="10.00">input&#45;tensor</text>
<text text-anchor="start" x="71.5" y="-1012" font-family="Linux libertine" font-size="10.00">depth:0</text>
<polygon fill="none" stroke="black" points="125,-1004 125,-1036 173,-1036 173,-1004 125,-1004"/>
<text text-anchor="start" x="130" y="-1017.5" font-family="Linux libertine" font-size="10.00">(1, 512)</text>
</g>
<!-- 1 -->
<g id="node2" class="node">
<title>1</title>
<polygon fill="aliceblue" stroke="transparent" points="187,-968 41,-968 41,-926 187,-926 187,-968"/>
<polygon fill="none" stroke="black" points="41,-926 41,-968 88,-968 88,-926 41,-926"/>
<text text-anchor="start" x="53.5" y="-950" font-family="Linux libertine" font-size="10.00">long</text>
<text text-anchor="start" x="46" y="-939" font-family="Linux libertine" font-size="10.00">depth:1</text>
<polygon fill="none" stroke="black" points="88,-947 88,-968 136,-968 136,-947 88,-947"/>
<text text-anchor="start" x="98" y="-955" font-family="Linux libertine" font-size="10.00">input:</text>
<polygon fill="none" stroke="black" points="136,-947 136,-968 187,-968 187,-947 136,-947"/>
<text text-anchor="start" x="141" y="-955" font-family="Linux libertine" font-size="10.00">(1, 512) </text>
<polygon fill="none" stroke="black" points="88,-926 88,-947 136,-947 136,-926 88,-926"/>
<text text-anchor="start" x="93" y="-934" font-family="Linux libertine" font-size="10.00">output: </text>
<polygon fill="none" stroke="black" points="136,-926 136,-947 187,-947 187,-926 136,-926"/>
<text text-anchor="start" x="141" y="-934" font-family="Linux libertine" font-size="10.00">(1, 512) </text>
</g>
<!-- 0&#45;&gt;1 -->
<g id="edge1" class="edge">
<title>0&#45;&gt;1</title>
<path fill="none" stroke="black" d="M114,-1003.94C114,-996.45 114,-987.12 114,-978.24"/>
<polygon fill="black" stroke="black" points="117.5,-978.16 114,-968.16 110.5,-978.16 117.5,-978.16"/>
</g>
<!-- 2 -->
<g id="node3" class="node">
<title>2</title>
<polygon fill="#c1ffc1" stroke="transparent" points="205,-890 23,-890 23,-848 205,-848 205,-890"/>
<polygon fill="none" stroke="black" points="23,-848 23,-890 88,-890 88,-848 23,-848"/>
<text text-anchor="start" x="28" y="-872" font-family="Linux libertine" font-size="10.00">Embedding</text>
<text text-anchor="start" x="37" y="-861" font-family="Linux libertine" font-size="10.00">depth:1</text>
<polygon fill="none" stroke="black" points="88,-869 88,-890 136,-890 136,-869 88,-869"/>
<text text-anchor="start" x="98" y="-877" font-family="Linux libertine" font-size="10.00">input:</text>
<polygon fill="none" stroke="black" points="136,-869 136,-890 205,-890 205,-869 136,-869"/>
<text text-anchor="start" x="150" y="-877" font-family="Linux libertine" font-size="10.00">(1, 512) </text>
<polygon fill="none" stroke="black" points="88,-848 88,-869 136,-869 136,-848 88,-848"/>
<text text-anchor="start" x="93" y="-856" font-family="Linux libertine" font-size="10.00">output: </text>
<polygon fill="none" stroke="black" points="136,-848 136,-869 205,-869 205,-848 136,-848"/>
<text text-anchor="start" x="141" y="-856" font-family="Linux libertine" font-size="10.00">(1, 512, 64) </text>
</g>
<!-- 1&#45;&gt;2 -->
<g id="edge2" class="edge">
<title>1&#45;&gt;2</title>
<path fill="none" stroke="black" d="M114,-925.63C114,-917.82 114,-908.73 114,-900.18"/>
<polygon fill="black" stroke="black" points="117.5,-900.16 114,-890.16 110.5,-900.16 117.5,-900.16"/>
</g>
<!-- 3 -->
<g id="node4" class="node">
<title>3</title>
<polygon fill="aliceblue" stroke="transparent" points="198.5,-812 29.5,-812 29.5,-770 198.5,-770 198.5,-812"/>
<polygon fill="none" stroke="black" points="30,-770 30,-812 82,-812 82,-770 30,-770"/>
<text text-anchor="start" x="35" y="-794" font-family="Linux libertine" font-size="10.00">permute</text>
<text text-anchor="start" x="37.5" y="-783" font-family="Linux libertine" font-size="10.00">depth:1</text>
<polygon fill="none" stroke="black" points="82,-791 82,-812 130,-812 130,-791 82,-791"/>
<text text-anchor="start" x="92" y="-799" font-family="Linux libertine" font-size="10.00">input:</text>
<polygon fill="none" stroke="black" points="130,-791 130,-812 199,-812 199,-791 130,-791"/>
<text text-anchor="start" x="135" y="-799" font-family="Linux libertine" font-size="10.00">(1, 512, 64) </text>
<polygon fill="none" stroke="black" points="82,-770 82,-791 130,-791 130,-770 82,-770"/>
<text text-anchor="start" x="87" y="-778" font-family="Linux libertine" font-size="10.00">output: </text>
<polygon fill="none" stroke="black" points="130,-770 130,-791 199,-791 199,-770 130,-770"/>
<text text-anchor="start" x="135" y="-778" font-family="Linux libertine" font-size="10.00">(1, 64, 512) </text>
</g>
<!-- 2&#45;&gt;3 -->
<g id="edge3" class="edge">
<title>2&#45;&gt;3</title>
<path fill="none" stroke="black" d="M114,-847.63C114,-839.82 114,-830.73 114,-822.18"/>
<polygon fill="black" stroke="black" points="117.5,-822.16 114,-812.16 110.5,-822.16 117.5,-822.16"/>
</g>
<!-- 4 -->
<g id="node5" class="node">
<title>4</title>
<polygon fill="#c1ffc1" stroke="transparent" points="199,-734 29,-734 29,-692 199,-692 199,-734"/>
<polygon fill="none" stroke="black" points="29,-692 29,-734 76,-734 76,-692 29,-692"/>
<text text-anchor="start" x="34" y="-716" font-family="Linux libertine" font-size="10.00">Conv1d</text>
<text text-anchor="start" x="34" y="-705" font-family="Linux libertine" font-size="10.00">depth:1</text>
<polygon fill="none" stroke="black" points="76,-713 76,-734 124,-734 124,-713 76,-713"/>
<text text-anchor="start" x="86" y="-721" font-family="Linux libertine" font-size="10.00">input:</text>
<polygon fill="none" stroke="black" points="124,-713 124,-734 199,-734 199,-713 124,-713"/>
<text text-anchor="start" x="132" y="-721" font-family="Linux libertine" font-size="10.00">(1, 64, 512) </text>
<polygon fill="none" stroke="black" points="76,-692 76,-713 124,-713 124,-692 76,-692"/>
<text text-anchor="start" x="81" y="-700" font-family="Linux libertine" font-size="10.00">output: </text>
<polygon fill="none" stroke="black" points="124,-692 124,-713 199,-713 199,-692 124,-692"/>
<text text-anchor="start" x="129" y="-700" font-family="Linux libertine" font-size="10.00">(1, 128, 512) </text>
</g>
<!-- 3&#45;&gt;4 -->
<g id="edge4" class="edge">
<title>3&#45;&gt;4</title>
<path fill="none" stroke="black" d="M114,-769.63C114,-761.82 114,-752.73 114,-744.18"/>
<polygon fill="black" stroke="black" points="117.5,-744.16 114,-734.16 110.5,-744.16 117.5,-744.16"/>
</g>
<!-- 5 -->
<g id="node6" class="node">
<title>5</title>
<polygon fill="#c1ffc1" stroke="transparent" points="208,-656 20,-656 20,-614 208,-614 208,-656"/>
<polygon fill="none" stroke="black" points="20,-614 20,-656 85,-656 85,-614 20,-614"/>
<text text-anchor="start" x="25" y="-638" font-family="Linux libertine" font-size="10.00">LeakyReLU</text>
<text text-anchor="start" x="34" y="-627" font-family="Linux libertine" font-size="10.00">depth:1</text>
<polygon fill="none" stroke="black" points="85,-635 85,-656 133,-656 133,-635 85,-635"/>
<text text-anchor="start" x="95" y="-643" font-family="Linux libertine" font-size="10.00">input:</text>
<polygon fill="none" stroke="black" points="133,-635 133,-656 208,-656 208,-635 133,-635"/>
<text text-anchor="start" x="138" y="-643" font-family="Linux libertine" font-size="10.00">(1, 128, 512) </text>
<polygon fill="none" stroke="black" points="85,-614 85,-635 133,-635 133,-614 85,-614"/>
<text text-anchor="start" x="90" y="-622" font-family="Linux libertine" font-size="10.00">output: </text>
<polygon fill="none" stroke="black" points="133,-614 133,-635 208,-635 208,-614 133,-614"/>
<text text-anchor="start" x="138" y="-622" font-family="Linux libertine" font-size="10.00">(1, 128, 512) </text>
</g>
<!-- 4&#45;&gt;5 -->
<g id="edge5" class="edge">
<title>4&#45;&gt;5</title>
<path fill="none" stroke="black" d="M114,-691.63C114,-683.82 114,-674.73 114,-666.18"/>
<polygon fill="black" stroke="black" points="117.5,-666.16 114,-656.16 110.5,-666.16 117.5,-666.16"/>
</g>
<!-- 6 -->
<g id="node7" class="node">
<title>6</title>
<polygon fill="#c1ffc1" stroke="transparent" points="208,-578 20,-578 20,-536 208,-536 208,-578"/>
<polygon fill="none" stroke="black" points="20,-536 20,-578 85,-578 85,-536 20,-536"/>
<text text-anchor="start" x="25" y="-560" font-family="Linux libertine" font-size="10.00">MaxPool1d</text>
<text text-anchor="start" x="34" y="-549" font-family="Linux libertine" font-size="10.00">depth:1</text>
<polygon fill="none" stroke="black" points="85,-557 85,-578 133,-578 133,-557 85,-557"/>
<text text-anchor="start" x="95" y="-565" font-family="Linux libertine" font-size="10.00">input:</text>
<polygon fill="none" stroke="black" points="133,-557 133,-578 208,-578 208,-557 133,-557"/>
<text text-anchor="start" x="138" y="-565" font-family="Linux libertine" font-size="10.00">(1, 128, 512) </text>
<polygon fill="none" stroke="black" points="85,-536 85,-557 133,-557 133,-536 85,-536"/>
<text text-anchor="start" x="90" y="-544" font-family="Linux libertine" font-size="10.00">output: </text>
<polygon fill="none" stroke="black" points="133,-536 133,-557 208,-557 208,-536 133,-536"/>
<text text-anchor="start" x="138" y="-544" font-family="Linux libertine" font-size="10.00">(1, 128, 128) </text>
</g>
<!-- 5&#45;&gt;6 -->
<g id="edge6" class="edge">
<title>5&#45;&gt;6</title>
<path fill="none" stroke="black" d="M114,-613.63C114,-605.82 114,-596.73 114,-588.18"/>
<polygon fill="black" stroke="black" points="117.5,-588.16 114,-578.16 110.5,-588.16 117.5,-588.16"/>
</g>
<!-- 7 -->
<g id="node8" class="node">
<title>7</title>
<polygon fill="#c1ffc1" stroke="transparent" points="228,-500 0,-500 0,-458 228,-458 228,-500"/>
<polygon fill="none" stroke="black" points="0,-458 0,-500 105,-500 105,-458 0,-458"/>
<text text-anchor="start" x="5" y="-482" font-family="Linux libertine" font-size="10.00">AdaptiveAvgPool1d</text>
<text text-anchor="start" x="34" y="-471" font-family="Linux libertine" font-size="10.00">depth:1</text>
<polygon fill="none" stroke="black" points="105,-479 105,-500 153,-500 153,-479 105,-479"/>
<text text-anchor="start" x="115" y="-487" font-family="Linux libertine" font-size="10.00">input:</text>
<polygon fill="none" stroke="black" points="153,-479 153,-500 228,-500 228,-479 153,-479"/>
<text text-anchor="start" x="158" y="-487" font-family="Linux libertine" font-size="10.00">(1, 128, 128) </text>
<polygon fill="none" stroke="black" points="105,-458 105,-479 153,-479 153,-458 105,-458"/>
<text text-anchor="start" x="110" y="-466" font-family="Linux libertine" font-size="10.00">output: </text>
<polygon fill="none" stroke="black" points="153,-458 153,-479 228,-479 228,-458 153,-458"/>
<text text-anchor="start" x="164" y="-466" font-family="Linux libertine" font-size="10.00">(1, 128, 1) </text>
</g>
<!-- 6&#45;&gt;7 -->
<g id="edge7" class="edge">
<title>6&#45;&gt;7</title>
<path fill="none" stroke="black" d="M114,-535.63C114,-527.82 114,-518.73 114,-510.18"/>
<polygon fill="black" stroke="black" points="117.5,-510.16 114,-500.16 110.5,-510.16 117.5,-510.16"/>
</g>
<!-- 8 -->
<g id="node9" class="node">
<title>8</title>
<polygon fill="aliceblue" stroke="transparent" points="195,-422 33,-422 33,-380 195,-380 195,-422"/>
<polygon fill="none" stroke="black" points="33,-380 33,-422 84,-422 84,-380 33,-380"/>
<text text-anchor="start" x="38" y="-404" font-family="Linux libertine" font-size="10.00">squeeze</text>
<text text-anchor="start" x="40" y="-393" font-family="Linux libertine" font-size="10.00">depth:1</text>
<polygon fill="none" stroke="black" points="84,-401 84,-422 132,-422 132,-401 84,-401"/>
<text text-anchor="start" x="94" y="-409" font-family="Linux libertine" font-size="10.00">input:</text>
<polygon fill="none" stroke="black" points="132,-401 132,-422 195,-422 195,-401 132,-401"/>
<text text-anchor="start" x="137" y="-409" font-family="Linux libertine" font-size="10.00">(1, 128, 1) </text>
<polygon fill="none" stroke="black" points="84,-380 84,-401 132,-401 132,-380 84,-380"/>
<text text-anchor="start" x="89" y="-388" font-family="Linux libertine" font-size="10.00">output: </text>
<polygon fill="none" stroke="black" points="132,-380 132,-401 195,-401 195,-380 132,-380"/>
<text text-anchor="start" x="143" y="-388" font-family="Linux libertine" font-size="10.00">(1, 128) </text>
</g>
<!-- 7&#45;&gt;8 -->
<g id="edge8" class="edge">
<title>7&#45;&gt;8</title>
<path fill="none" stroke="black" d="M114,-457.63C114,-449.82 114,-440.73 114,-432.18"/>
<polygon fill="black" stroke="black" points="117.5,-432.16 114,-422.16 110.5,-432.16 117.5,-432.16"/>
</g>
<!-- 9 -->
<g id="node10" class="node">
<title>9</title>
<polygon fill="#c1ffc1" stroke="transparent" points="188.5,-344 39.5,-344 39.5,-302 188.5,-302 188.5,-344"/>
<polygon fill="none" stroke="black" points="40,-302 40,-344 90,-344 90,-302 40,-302"/>
<text text-anchor="start" x="45" y="-326" font-family="Linux libertine" font-size="10.00">Dropout</text>
<text text-anchor="start" x="46.5" y="-315" font-family="Linux libertine" font-size="10.00">depth:1</text>
<polygon fill="none" stroke="black" points="90,-323 90,-344 138,-344 138,-323 90,-323"/>
<text text-anchor="start" x="100" y="-331" font-family="Linux libertine" font-size="10.00">input:</text>
<polygon fill="none" stroke="black" points="138,-323 138,-344 189,-344 189,-323 138,-323"/>
<text text-anchor="start" x="143" y="-331" font-family="Linux libertine" font-size="10.00">(1, 128) </text>
<polygon fill="none" stroke="black" points="90,-302 90,-323 138,-323 138,-302 90,-302"/>
<text text-anchor="start" x="95" y="-310" font-family="Linux libertine" font-size="10.00">output: </text>
<polygon fill="none" stroke="black" points="138,-302 138,-323 189,-323 189,-302 138,-302"/>
<text text-anchor="start" x="143" y="-310" font-family="Linux libertine" font-size="10.00">(1, 128) </text>
</g>
<!-- 8&#45;&gt;9 -->
<g id="edge9" class="edge">
<title>8&#45;&gt;9</title>
<path fill="none" stroke="black" d="M114,-379.63C114,-371.82 114,-362.73 114,-354.18"/>
<polygon fill="black" stroke="black" points="117.5,-354.16 114,-344.16 110.5,-354.16 117.5,-354.16"/>
</g>
<!-- 10 -->
<g id="node11" class="node">
<title>10</title>
<polygon fill="#c1ffc1" stroke="transparent" points="187,-266 41,-266 41,-224 187,-224 187,-266"/>
<polygon fill="none" stroke="black" points="41,-224 41,-266 88,-266 88,-224 41,-224"/>
<text text-anchor="start" x="49" y="-248" font-family="Linux libertine" font-size="10.00">Linear</text>
<text text-anchor="start" x="46" y="-237" font-family="Linux libertine" font-size="10.00">depth:1</text>
<polygon fill="none" stroke="black" points="88,-245 88,-266 136,-266 136,-245 88,-245"/>
<text text-anchor="start" x="98" y="-253" font-family="Linux libertine" font-size="10.00">input:</text>
<polygon fill="none" stroke="black" points="136,-245 136,-266 187,-266 187,-245 136,-245"/>
<text text-anchor="start" x="141" y="-253" font-family="Linux libertine" font-size="10.00">(1, 128) </text>
<polygon fill="none" stroke="black" points="88,-224 88,-245 136,-245 136,-224 88,-224"/>
<text text-anchor="start" x="93" y="-232" font-family="Linux libertine" font-size="10.00">output: </text>
<polygon fill="none" stroke="black" points="136,-224 136,-245 187,-245 187,-224 136,-224"/>
<text text-anchor="start" x="141" y="-232" font-family="Linux libertine" font-size="10.00">(1, 256) </text>
</g>
<!-- 9&#45;&gt;10 -->
<g id="edge10" class="edge">
<title>9&#45;&gt;10</title>
<path fill="none" stroke="black" d="M114,-301.63C114,-293.82 114,-284.73 114,-276.18"/>
<polygon fill="black" stroke="black" points="117.5,-276.16 114,-266.16 110.5,-276.16 117.5,-276.16"/>
</g>
<!-- 11 -->
<g id="node12" class="node">
<title>11</title>
<polygon fill="#c1ffc1" stroke="transparent" points="196,-188 32,-188 32,-146 196,-146 196,-188"/>
<polygon fill="none" stroke="black" points="32,-146 32,-188 97,-188 97,-146 32,-146"/>
<text text-anchor="start" x="37" y="-170" font-family="Linux libertine" font-size="10.00">LeakyReLU</text>
<text text-anchor="start" x="46" y="-159" font-family="Linux libertine" font-size="10.00">depth:1</text>
<polygon fill="none" stroke="black" points="97,-167 97,-188 145,-188 145,-167 97,-167"/>
<text text-anchor="start" x="107" y="-175" font-family="Linux libertine" font-size="10.00">input:</text>
<polygon fill="none" stroke="black" points="145,-167 145,-188 196,-188 196,-167 145,-167"/>
<text text-anchor="start" x="150" y="-175" font-family="Linux libertine" font-size="10.00">(1, 256) </text>
<polygon fill="none" stroke="black" points="97,-146 97,-167 145,-167 145,-146 97,-146"/>
<text text-anchor="start" x="102" y="-154" font-family="Linux libertine" font-size="10.00">output: </text>
<polygon fill="none" stroke="black" points="145,-146 145,-167 196,-167 196,-146 145,-146"/>
<text text-anchor="start" x="150" y="-154" font-family="Linux libertine" font-size="10.00">(1, 256) </text>
</g>
<!-- 10&#45;&gt;11 -->
<g id="edge11" class="edge">
<title>10&#45;&gt;11</title>
<path fill="none" stroke="black" d="M114,-223.63C114,-215.82 114,-206.73 114,-198.18"/>
<polygon fill="black" stroke="black" points="117.5,-198.16 114,-188.16 110.5,-198.16 117.5,-198.16"/>
</g>
<!-- 12 -->
<g id="node13" class="node">
<title>12</title>
<polygon fill="#c1ffc1" stroke="transparent" points="187,-110 41,-110 41,-68 187,-68 187,-110"/>
<polygon fill="none" stroke="black" points="41,-68 41,-110 88,-110 88,-68 41,-68"/>
<text text-anchor="start" x="49" y="-92" font-family="Linux libertine" font-size="10.00">Linear</text>
<text text-anchor="start" x="46" y="-81" font-family="Linux libertine" font-size="10.00">depth:1</text>
<polygon fill="none" stroke="black" points="88,-89 88,-110 136,-110 136,-89 88,-89"/>
<text text-anchor="start" x="98" y="-97" font-family="Linux libertine" font-size="10.00">input:</text>
<polygon fill="none" stroke="black" points="136,-89 136,-110 187,-110 187,-89 136,-89"/>
<text text-anchor="start" x="141" y="-97" font-family="Linux libertine" font-size="10.00">(1, 256) </text>
<polygon fill="none" stroke="black" points="88,-68 88,-89 136,-89 136,-68 88,-68"/>
<text text-anchor="start" x="93" y="-76" font-family="Linux libertine" font-size="10.00">output: </text>
<polygon fill="none" stroke="black" points="136,-68 136,-89 187,-89 187,-68 136,-68"/>
<text text-anchor="start" x="144" y="-76" font-family="Linux libertine" font-size="10.00">(1, 75) </text>
</g>
<!-- 11&#45;&gt;12 -->
<g id="edge12" class="edge">
<title>11&#45;&gt;12</title>
<path fill="none" stroke="black" d="M114,-145.63C114,-137.82 114,-128.73 114,-120.18"/>
<polygon fill="black" stroke="black" points="117.5,-120.16 114,-110.16 110.5,-120.16 117.5,-120.16"/>
</g>
<!-- 13 -->
<g id="node14" class="node">
<title>13</title>
<polygon fill="lightyellow" stroke="transparent" points="173.5,-32 54.5,-32 54.5,0 173.5,0 173.5,-32"/>
<polygon fill="none" stroke="black" points="55,0 55,-32 132,-32 132,0 55,0"/>
<text text-anchor="start" x="60" y="-19" font-family="Linux libertine" font-size="10.00">output&#45;tensor</text>
<text text-anchor="start" x="75" y="-8" font-family="Linux libertine" font-size="10.00">depth:0</text>
<polygon fill="none" stroke="black" points="132,0 132,-32 174,-32 174,0 132,0"/>
<text text-anchor="start" x="137" y="-13.5" font-family="Linux libertine" font-size="10.00">(1, 75)</text>
</g>
<!-- 12&#45;&gt;13 -->
<g id="edge13" class="edge">
<title>12&#45;&gt;13</title>
<path fill="none" stroke="black" d="M114,-67.84C114,-59.89 114,-50.66 114,-42.26"/>
<polygon fill="black" stroke="black" points="117.5,-42.24 114,-32.24 110.5,-42.24 117.5,-42.24"/>
</g>
</g>
</svg>
