<?xml version="1.0" encoding="UTF-8" standalone="no"?>
<!DOCTYPE svg PUBLIC "-//W3C//DTD SVG 1.1//EN"
 "http://www.w3.org/Graphics/SVG/1.1/DTD/svg11.dtd">
<!-- Generated by graphviz version 2.43.0 (0)
 -->
<!-- Title: model Pages: 1 -->
<svg width="464pt" height="654pt"
 viewBox="0.00 0.00 464.00 654.00" xmlns="http://www.w3.org/2000/svg" xmlns:xlink="http://www.w3.org/1999/xlink">
<g id="graph0" class="graph" transform="scale(1 1) rotate(0) translate(4 650)">
<title>model</title>
<polygon fill="white" stroke="transparent" points="-4,4 -4,-650 460,-650 460,4 -4,4"/>
<!-- 0 -->
<g id="node1" class="node">
<title>0</title>
<polygon fill="lightyellow" stroke="transparent" points="298.5,-646 156.5,-646 156.5,-614 298.5,-614 298.5,-646"/>
<polygon fill="none" stroke="black" points="156.5,-614 156.5,-646 239.5,-646 239.5,-614 156.5,-614"/>
<text text-anchor="start" x="161.5" y="-633" font-family="Linux libertine" font-size="10.00">input&#45;tensor</text>
<text text-anchor="start" x="176.5" y="-622" font-family="Linux libertine" font-size="10.00">depth:0</text>
<polygon fill="none" stroke="black" points="239.5,-614 239.5,-646 298.5,-646 298.5,-614 239.5,-614"/>
<text text-anchor="start" x="244.5" y="-627.5" font-family="Linux libertine" font-size="10.00">(1, 512)</text>
</g>
<!-- 1 -->
<g id="node2" class="node">
<title>1</title>
<polygon fill="aliceblue" stroke="transparent" points="316,-578 139,-578 139,-536 316,-536 316,-578"/>
<polygon fill="none" stroke="black" points="139.5,-536 139.5,-578 192.5,-578 192.5,-536 139.5,-536"/>
<text text-anchor="start" x="153.5" y="-560" font-family="Linux libertine" font-size="10.00">long</text>
<text text-anchor="start" x="144.5" y="-549" font-family="Linux libertine" font-size="10.00">depth:1</text>
<polygon fill="none" stroke="black" points="192.5,-557 192.5,-578 251.5,-578 251.5,-557 192.5,-557"/>
<text text-anchor="start" x="203.5" y="-565" font-family="Linux libertine" font-size="10.00">input:</text>
<polygon fill="none" stroke="black" points="251.5,-557 251.5,-578 316.5,-578 316.5,-557 251.5,-557"/>
<text text-anchor="start" x="256.5" y="-565" font-family="Linux libertine" font-size="10.00">(1, 512) </text>
<polygon fill="none" stroke="black" points="192.5,-536 192.5,-557 251.5,-557 251.5,-536 192.5,-536"/>
<text text-anchor="start" x="197.5" y="-544" font-family="Linux libertine" font-size="10.00">output: </text>
<polygon fill="none" stroke="black" points="251.5,-536 251.5,-557 316.5,-557 316.5,-536 251.5,-536"/>
<text text-anchor="start" x="256.5" y="-544" font-family="Linux libertine" font-size="10.00">(1, 512) </text>
</g>
<!-- 0&#45;&gt;1 -->
<g id="edge1" class="edge">
<title>0&#45;&gt;1</title>
<path fill="none" stroke="black" d="M227.5,-613.94C227.5,-606.45 227.5,-597.12 227.5,-588.24"/>
<polygon fill="black" stroke="black" points="231,-588.16 227.5,-578.16 224,-588.16 231,-588.16"/>
</g>
<!-- 2 -->
<g id="node3" class="node">
<title>2</title>
<polygon fill="#c1ffc1" stroke="transparent" points="334,-500 121,-500 121,-458 334,-458 334,-500"/>
<polygon fill="none" stroke="black" points="121.5,-458 121.5,-500 186.5,-500 186.5,-458 121.5,-458"/>
<text text-anchor="start" x="126.5" y="-482" font-family="Linux libertine" font-size="10.00">Embedding</text>
<text text-anchor="start" x="132.5" y="-471" font-family="Linux libertine" font-size="10.00">depth:1</text>
<polygon fill="none" stroke="black" points="186.5,-479 186.5,-500 245.5,-500 245.5,-479 186.5,-479"/>
<text text-anchor="start" x="197.5" y="-487" font-family="Linux libertine" font-size="10.00">input:</text>
<polygon fill="none" stroke="black" points="245.5,-479 245.5,-500 334.5,-500 334.5,-479 245.5,-479"/>
<text text-anchor="start" x="262.5" y="-487" font-family="Linux libertine" font-size="10.00">(1, 512) </text>
<polygon fill="none" stroke="black" points="186.5,-458 186.5,-479 245.5,-479 245.5,-458 186.5,-458"/>
<text text-anchor="start" x="191.5" y="-466" font-family="Linux libertine" font-size="10.00">output: </text>
<polygon fill="none" stroke="black" points="245.5,-458 245.5,-479 334.5,-479 334.5,-458 245.5,-458"/>
<text text-anchor="start" x="250.5" y="-466" font-family="Linux libertine" font-size="10.00">(1, 512, 64) </text>
</g>
<!-- 1&#45;&gt;2 -->
<g id="edge2" class="edge">
<title>1&#45;&gt;2</title>
<path fill="none" stroke="black" d="M227.5,-535.63C227.5,-527.82 227.5,-518.73 227.5,-510.18"/>
<polygon fill="black" stroke="black" points="231,-510.16 227.5,-500.16 224,-510.16 231,-510.16"/>
</g>
<!-- 3 -->
<g id="node4" class="node">
<title>3</title>
<polygon fill="#c1ffc1" stroke="transparent" points="370,-422 85,-422 85,-380 370,-380 370,-422"/>
<polygon fill="none" stroke="black" points="85.5,-380 85.5,-422 138.5,-422 138.5,-380 85.5,-380"/>
<text text-anchor="start" x="102.5" y="-404" font-family="Linux libertine" font-size="10.00">GRU</text>
<text text-anchor="start" x="90.5" y="-393" font-family="Linux libertine" font-size="10.00">depth:1</text>
<polygon fill="none" stroke="black" points="138.5,-401 138.5,-422 197.5,-422 197.5,-401 138.5,-401"/>
<text text-anchor="start" x="149.5" y="-409" font-family="Linux libertine" font-size="10.00">input:</text>
<polygon fill="none" stroke="black" points="197.5,-401 197.5,-422 370.5,-422 370.5,-401 197.5,-401"/>
<text text-anchor="start" x="244.5" y="-409" font-family="Linux libertine" font-size="10.00">(1, 512, 64) </text>
<polygon fill="none" stroke="black" points="138.5,-380 138.5,-401 197.5,-401 197.5,-380 138.5,-380"/>
<text text-anchor="start" x="143.5" y="-388" font-family="Linux libertine" font-size="10.00">output: </text>
<polygon fill="none" stroke="black" points="197.5,-380 197.5,-401 370.5,-401 370.5,-380 197.5,-380"/>
<text text-anchor="start" x="202.5" y="-388" font-family="Linux libertine" font-size="10.00">(1, 512, 512), (4, 1, 256) </text>
</g>
<!-- 2&#45;&gt;3 -->
<g id="edge3" class="edge">
<title>2&#45;&gt;3</title>
<path fill="none" stroke="black" d="M227.5,-457.63C227.5,-449.82 227.5,-440.73 227.5,-432.18"/>
<polygon fill="black" stroke="black" points="231,-432.16 227.5,-422.16 224,-432.16 231,-432.16"/>
</g>
<!-- 4 -->
<g id="node5" class="node">
<title>4</title>
<polygon fill="aliceblue" stroke="transparent" points="219,-344 0,-344 0,-302 219,-302 219,-344"/>
<polygon fill="none" stroke="black" points="0.5,-302 0.5,-344 77.5,-344 77.5,-302 0.5,-302"/>
<text text-anchor="start" x="5.5" y="-326" font-family="Linux libertine" font-size="10.00">__getitem__</text>
<text text-anchor="start" x="17.5" y="-315" font-family="Linux libertine" font-size="10.00">depth:1</text>
<polygon fill="none" stroke="black" points="77.5,-323 77.5,-344 136.5,-344 136.5,-323 77.5,-323"/>
<text text-anchor="start" x="88.5" y="-331" font-family="Linux libertine" font-size="10.00">input:</text>
<polygon fill="none" stroke="black" points="136.5,-323 136.5,-344 219.5,-344 219.5,-323 136.5,-323"/>
<text text-anchor="start" x="141.5" y="-331" font-family="Linux libertine" font-size="10.00">(4, 1, 256) </text>
<polygon fill="none" stroke="black" points="77.5,-302 77.5,-323 136.5,-323 136.5,-302 77.5,-302"/>
<text text-anchor="start" x="82.5" y="-310" font-family="Linux libertine" font-size="10.00">output: </text>
<polygon fill="none" stroke="black" points="136.5,-302 136.5,-323 219.5,-323 219.5,-302 136.5,-302"/>
<text text-anchor="start" x="150.5" y="-310" font-family="Linux libertine" font-size="10.00">(1, 256) </text>
</g>
<!-- 3&#45;&gt;4 -->
<g id="edge4" class="edge">
<title>3&#45;&gt;4</title>
<path fill="none" stroke="black" d="M196.19,-379.83C181.92,-370.64 164.86,-359.65 149.66,-349.86"/>
<polygon fill="black" stroke="black" points="151.26,-346.73 140.96,-344.26 147.47,-352.62 151.26,-346.73"/>
</g>
<!-- 5 -->
<g id="node6" class="node">
<title>5</title>
<polygon fill="aliceblue" stroke="transparent" points="456,-344 237,-344 237,-302 456,-302 456,-344"/>
<polygon fill="none" stroke="black" points="237.5,-302 237.5,-344 314.5,-344 314.5,-302 237.5,-302"/>
<text text-anchor="start" x="242.5" y="-326" font-family="Linux libertine" font-size="10.00">__getitem__</text>
<text text-anchor="start" x="254.5" y="-315" font-family="Linux libertine" font-size="10.00">depth:1</text>
<polygon fill="none" stroke="black" points="314.5,-323 314.5,-344 373.5,-344 373.5,-323 314.5,-323"/>
<text text-anchor="start" x="325.5" y="-331" font-family="Linux libertine" font-size="10.00">input:</text>
<polygon fill="none" stroke="black" points="373.5,-323 373.5,-344 456.5,-344 456.5,-323 373.5,-323"/>
<text text-anchor="start" x="378.5" y="-331" font-family="Linux libertine" font-size="10.00">(4, 1, 256) </text>
<polygon fill="none" stroke="black" points="314.5,-302 314.5,-323 373.5,-323 373.5,-302 314.5,-302"/>
<text text-anchor="start" x="319.5" y="-310" font-family="Linux libertine" font-size="10.00">output: </text>
<polygon fill="none" stroke="black" points="373.5,-302 373.5,-323 456.5,-323 456.5,-302 373.5,-302"/>
<text text-anchor="start" x="387.5" y="-310" font-family="Linux libertine" font-size="10.00">(1, 256) </text>
</g>
<!-- 3&#45;&gt;5 -->
<g id="edge5" class="edge">
<title>3&#45;&gt;5</title>
<path fill="none" stroke="black" d="M259.08,-379.83C273.47,-370.64 290.68,-359.65 306,-349.86"/>
<polygon fill="black" stroke="black" points="308.23,-352.59 314.78,-344.26 304.46,-346.69 308.23,-352.59"/>
</g>
<!-- 6 -->
<g id="node7" class="node">
<title>6</title>
<polygon fill="aliceblue" stroke="transparent" points="328,-266 127,-266 127,-224 328,-224 328,-266"/>
<polygon fill="none" stroke="black" points="127.5,-224 127.5,-266 180.5,-266 180.5,-224 127.5,-224"/>
<text text-anchor="start" x="144.5" y="-248" font-family="Linux libertine" font-size="10.00">cat</text>
<text text-anchor="start" x="132.5" y="-237" font-family="Linux libertine" font-size="10.00">depth:1</text>
<polygon fill="none" stroke="black" points="180.5,-245 180.5,-266 239.5,-266 239.5,-245 180.5,-245"/>
<text text-anchor="start" x="191.5" y="-253" font-family="Linux libertine" font-size="10.00">input:</text>
<polygon fill="none" stroke="black" points="239.5,-245 239.5,-266 328.5,-266 328.5,-245 239.5,-245"/>
<text text-anchor="start" x="244.5" y="-253" font-family="Linux libertine" font-size="10.00">2 x (1, 256) </text>
<polygon fill="none" stroke="black" points="180.5,-224 180.5,-245 239.5,-245 239.5,-224 180.5,-224"/>
<text text-anchor="start" x="185.5" y="-232" font-family="Linux libertine" font-size="10.00">output: </text>
<polygon fill="none" stroke="black" points="239.5,-224 239.5,-245 328.5,-245 328.5,-224 239.5,-224"/>
<text text-anchor="start" x="256.5" y="-232" font-family="Linux libertine" font-size="10.00">(1, 512) </text>
</g>
<!-- 4&#45;&gt;6 -->
<g id="edge6" class="edge">
<title>4&#45;&gt;6</title>
<path fill="none" stroke="black" d="M140.81,-301.83C155.08,-292.64 172.14,-281.65 187.34,-271.86"/>
<polygon fill="black" stroke="black" points="189.53,-274.62 196.04,-266.26 185.74,-268.73 189.53,-274.62"/>
</g>
<!-- 5&#45;&gt;6 -->
<g id="edge7" class="edge">
<title>5&#45;&gt;6</title>
<path fill="none" stroke="black" d="M314.92,-301.83C300.53,-292.64 283.32,-281.65 268,-271.86"/>
<polygon fill="black" stroke="black" points="269.54,-268.69 259.22,-266.26 265.77,-274.59 269.54,-268.69"/>
</g>
<!-- 7 -->
<g id="node8" class="node">
<title>7</title>
<polygon fill="#c1ffc1" stroke="transparent" points="316,-188 139,-188 139,-146 316,-146 316,-188"/>
<polygon fill="none" stroke="black" points="139.5,-146 139.5,-188 192.5,-188 192.5,-146 139.5,-146"/>
<text text-anchor="start" x="144.5" y="-170" font-family="Linux libertine" font-size="10.00">Dropout</text>
<text text-anchor="start" x="144.5" y="-159" font-family="Linux libertine" font-size="10.00">depth:1</text>
<polygon fill="none" stroke="black" points="192.5,-167 192.5,-188 251.5,-188 251.5,-167 192.5,-167"/>
<text text-anchor="start" x="203.5" y="-175" font-family="Linux libertine" font-size="10.00">input:</text>
<polygon fill="none" stroke="black" points="251.5,-167 251.5,-188 316.5,-188 316.5,-167 251.5,-167"/>
<text text-anchor="start" x="256.5" y="-175" font-family="Linux libertine" font-size="10.00">(1, 512) </text>
<polygon fill="none" stroke="black" points="192.5,-146 192.5,-167 251.5,-167 251.5,-146 192.5,-146"/>
<text text-anchor="start" x="197.5" y="-154" font-family="Linux libertine" font-size="10.00">output: </text>
<polygon fill="none" stroke="black" points="251.5,-146 251.5,-167 316.5,-167 316.5,-146 251.5,-146"/>
<text text-anchor="start" x="256.5" y="-154" font-family="Linux libertine" font-size="10.00">(1, 512) </text>
</g>
<!-- 6&#45;&gt;7 -->
<g id="edge8" class="edge">
<title>6&#45;&gt;7</title>
<path fill="none" stroke="black" d="M227.5,-223.63C227.5,-215.82 227.5,-206.73 227.5,-198.18"/>
<polygon fill="black" stroke="black" points="231,-198.16 227.5,-188.16 224,-198.16 231,-198.16"/>
</g>
<!-- 8 -->
<g id="node9" class="node">
<title>8</title>
<polygon fill="#c1ffc1" stroke="transparent" points="316,-110 139,-110 139,-68 316,-68 316,-110"/>
<polygon fill="none" stroke="black" points="139.5,-68 139.5,-110 192.5,-110 192.5,-68 139.5,-68"/>
<text text-anchor="start" x="147.5" y="-92" font-family="Linux libertine" font-size="10.00">Linear</text>
<text text-anchor="start" x="144.5" y="-81" font-family="Linux libertine" font-size="10.00">depth:1</text>
<polygon fill="none" stroke="black" points="192.5,-89 192.5,-110 251.5,-110 251.5,-89 192.5,-89"/>
<text text-anchor="start" x="203.5" y="-97" font-family="Linux libertine" font-size="10.00">input:</text>
<polygon fill="none" stroke="black" points="251.5,-89 251.5,-110 316.5,-110 316.5,-89 251.5,-89"/>
<text text-anchor="start" x="256.5" y="-97" font-family="Linux libertine" font-size="10.00">(1, 512) </text>
<polygon fill="none" stroke="black" points="192.5,-68 192.5,-89 251.5,-89 251.5,-68 192.5,-68"/>
<text text-anchor="start" x="197.5" y="-76" font-family="Linux libertine" font-size="10.00">output: </text>
<polygon fill="none" stroke="black" points="251.5,-68 251.5,-89 316.5,-89 316.5,-68 251.5,-68"/>
<text text-anchor="start" x="259.5" y="-76" font-family="Linux libertine" font-size="10.00">(1, 75) </text>
</g>
<!-- 7&#45;&gt;8 -->
<g id="edge9" class="edge">
<title>7&#45;&gt;8</title>
<path fill="none" stroke="black" d="M227.5,-145.63C227.5,-137.82 227.5,-128.73 227.5,-120.18"/>
<polygon fill="black" stroke="black" points="231,-120.16 227.5,-110.16 224,-120.16 231,-120.16"/>
</g>
<!-- 9 -->
<g id="node10" class="node">
<title>9</title>
<polygon fill="lightyellow" stroke="transparent" points="298.5,-32 156.5,-32 156.5,0 298.5,0 298.5,-32"/>
<polygon fill="none" stroke="black" points="156.5,0 156.5,-32 245.5,-32 245.5,0 156.5,0"/>
<text text-anchor="start" x="161.5" y="-19" font-family="Linux libertine" font-size="10.00">output&#45;tensor</text>
<text text-anchor="start" x="179.5" y="-8" font-family="Linux libertine" font-size="10.00">depth:0</text>
<polygon fill="none" stroke="black" points="245.5,0 245.5,-32 298.5,-32 298.5,0 245.5,0"/>
<text text-anchor="start" x="250.5" y="-13.5" font-family="Linux libertine" font-size="10.00">(1, 75)</text>
</g>
<!-- 8&#45;&gt;9 -->
<g id="edge10" class="edge">
<title>8&#45;&gt;9</title>
<path fill="none" stroke="black" d="M227.5,-67.84C227.5,-59.89 227.5,-50.66 227.5,-42.26"/>
<polygon fill="black" stroke="black" points="231,-42.24 227.5,-32.24 224,-42.24 231,-42.24"/>
</g>
</g>
</svg>
