<?xml version="1.0" encoding="UTF-8" standalone="no"?>
<!DOCTYPE svg PUBLIC "-//W3C//DTD SVG 1.1//EN"
 "http://www.w3.org/Graphics/SVG/1.1/DTD/svg11.dtd">
<!-- Generated by graphviz version 2.43.0 (0)
 -->
<!-- Title: model Pages: 1 -->
<svg width="388pt" height="654pt"
 viewBox="0.00 0.00 388.00 654.00" xmlns="http://www.w3.org/2000/svg" xmlns:xlink="http://www.w3.org/1999/xlink">
<g id="graph0" class="graph" transform="scale(1 1) rotate(0) translate(4 650)">
<title>model</title>
<polygon fill="white" stroke="transparent" points="-4,4 -4,-650 384,-650 384,4 -4,4"/>
<!-- 0 -->
<g id="node1" class="node">
<title>0</title>
<polygon fill="lightyellow" stroke="transparent" points="248.5,-646 130.5,-646 130.5,-614 248.5,-614 248.5,-646"/>
<polygon fill="none" stroke="black" points="130.5,-614 130.5,-646 200.5,-646 200.5,-614 130.5,-614"/>
<text text-anchor="start" x="135.5" y="-633" font-family="Linux libertine" font-size="10.00">input&#45;tensor</text>
<text text-anchor="start" x="147" y="-622" font-family="Linux libertine" font-size="10.00">depth:0</text>
<polygon fill="none" stroke="black" points="200.5,-614 200.5,-646 248.5,-646 248.5,-614 200.5,-614"/>
<text text-anchor="start" x="205.5" y="-627.5" font-family="Linux libertine" font-size="10.00">(1, 512)</text>
</g>
<!-- 1 -->
<g id="node2" class="node">
<title>1</title>
<polygon fill="aliceblue" stroke="transparent" points="262.5,-578 116.5,-578 116.5,-536 262.5,-536 262.5,-578"/>
<polygon fill="none" stroke="black" points="116.5,-536 116.5,-578 163.5,-578 163.5,-536 116.5,-536"/>
<text text-anchor="start" x="129" y="-560" font-family="Linux libertine" font-size="10.00">long</text>
<text text-anchor="start" x="121.5" y="-549" font-family="Linux libertine" font-size="10.00">depth:1</text>
<polygon fill="none" stroke="black" points="163.5,-557 163.5,-578 211.5,-578 211.5,-557 163.5,-557"/>
<text text-anchor="start" x="173.5" y="-565" font-family="Linux libertine" font-size="10.00">input:</text>
<polygon fill="none" stroke="black" points="211.5,-557 211.5,-578 262.5,-578 262.5,-557 211.5,-557"/>
<text text-anchor="start" x="216.5" y="-565" font-family="Linux libertine" font-size="10.00">(1, 512) </text>
<polygon fill="none" stroke="black" points="163.5,-536 163.5,-557 211.5,-557 211.5,-536 163.5,-536"/>
<text text-anchor="start" x="168.5" y="-544" font-family="Linux libertine" font-size="10.00">output: </text>
<polygon fill="none" stroke="black" points="211.5,-536 211.5,-557 262.5,-557 262.5,-536 211.5,-536"/>
<text text-anchor="start" x="216.5" y="-544" font-family="Linux libertine" font-size="10.00">(1, 512) </text>
</g>
<!-- 0&#45;&gt;1 -->
<g id="edge1" class="edge">
<title>0&#45;&gt;1</title>
<path fill="none" stroke="black" d="M189.5,-613.94C189.5,-606.45 189.5,-597.12 189.5,-588.24"/>
<polygon fill="black" stroke="black" points="193,-588.16 189.5,-578.16 186,-588.16 193,-588.16"/>
</g>
<!-- 2 -->
<g id="node3" class="node">
<title>2</title>
<polygon fill="#c1ffc1" stroke="transparent" points="280.5,-500 98.5,-500 98.5,-458 280.5,-458 280.5,-500"/>
<polygon fill="none" stroke="black" points="98.5,-458 98.5,-500 163.5,-500 163.5,-458 98.5,-458"/>
<text text-anchor="start" x="103.5" y="-482" font-family="Linux libertine" font-size="10.00">Embedding</text>
<text text-anchor="start" x="112.5" y="-471" font-family="Linux libertine" font-size="10.00">depth:1</text>
<polygon fill="none" stroke="black" points="163.5,-479 163.5,-500 211.5,-500 211.5,-479 163.5,-479"/>
<text text-anchor="start" x="173.5" y="-487" font-family="Linux libertine" font-size="10.00">input:</text>
<polygon fill="none" stroke="black" points="211.5,-479 211.5,-500 280.5,-500 280.5,-479 211.5,-479"/>
<text text-anchor="start" x="225.5" y="-487" font-family="Linux libertine" font-size="10.00">(1, 512) </text>
<polygon fill="none" stroke="black" points="163.5,-458 163.5,-479 211.5,-479 211.5,-458 163.5,-458"/>
<text text-anchor="start" x="168.5" y="-466" font-family="Linux libertine" font-size="10.00">output: </text>
<polygon fill="none" stroke="black" points="211.5,-458 211.5,-479 280.5,-479 280.5,-458 211.5,-458"/>
<text text-anchor="start" x="216.5" y="-466" font-family="Linux libertine" font-size="10.00">(1, 512, 64) </text>
</g>
<!-- 1&#45;&gt;2 -->
<g id="edge2" class="edge">
<title>1&#45;&gt;2</title>
<path fill="none" stroke="black" d="M189.5,-535.63C189.5,-527.82 189.5,-518.73 189.5,-510.18"/>
<polygon fill="black" stroke="black" points="193,-510.16 189.5,-500.16 186,-510.16 193,-510.16"/>
</g>
<!-- 3 -->
<g id="node4" class="node">
<title>3</title>
<polygon fill="#c1ffc1" stroke="transparent" points="302.5,-422 76.5,-422 76.5,-380 302.5,-380 302.5,-422"/>
<polygon fill="none" stroke="black" points="76.5,-380 76.5,-422 123.5,-422 123.5,-380 76.5,-380"/>
<text text-anchor="start" x="89" y="-404" font-family="Linux libertine" font-size="10.00">GRU</text>
<text text-anchor="start" x="81.5" y="-393" font-family="Linux libertine" font-size="10.00">depth:1</text>
<polygon fill="none" stroke="black" points="123.5,-401 123.5,-422 171.5,-422 171.5,-401 123.5,-401"/>
<text text-anchor="start" x="133.5" y="-409" font-family="Linux libertine" font-size="10.00">input:</text>
<polygon fill="none" stroke="black" points="171.5,-401 171.5,-422 302.5,-422 302.5,-401 171.5,-401"/>
<text text-anchor="start" x="207.5" y="-409" font-family="Linux libertine" font-size="10.00">(1, 512, 64) </text>
<polygon fill="none" stroke="black" points="123.5,-380 123.5,-401 171.5,-401 171.5,-380 123.5,-380"/>
<text text-anchor="start" x="128.5" y="-388" font-family="Linux libertine" font-size="10.00">output: </text>
<polygon fill="none" stroke="black" points="171.5,-380 171.5,-401 302.5,-401 302.5,-380 171.5,-380"/>
<text text-anchor="start" x="176.5" y="-388" font-family="Linux libertine" font-size="10.00">(1, 512, 512), (4, 1, 256) </text>
</g>
<!-- 2&#45;&gt;3 -->
<g id="edge3" class="edge">
<title>2&#45;&gt;3</title>
<path fill="none" stroke="black" d="M189.5,-457.63C189.5,-449.82 189.5,-440.73 189.5,-432.18"/>
<polygon fill="black" stroke="black" points="193,-432.16 189.5,-422.16 186,-432.16 193,-432.16"/>
</g>
<!-- 4 -->
<g id="node5" class="node">
<title>4</title>
<polygon fill="aliceblue" stroke="transparent" points="181,-344 0,-344 0,-302 181,-302 181,-344"/>
<polygon fill="none" stroke="black" points="0.5,-302 0.5,-344 70.5,-344 70.5,-302 0.5,-302"/>
<text text-anchor="start" x="5.5" y="-326" font-family="Linux libertine" font-size="10.00">__getitem__</text>
<text text-anchor="start" x="17" y="-315" font-family="Linux libertine" font-size="10.00">depth:1</text>
<polygon fill="none" stroke="black" points="70.5,-323 70.5,-344 118.5,-344 118.5,-323 70.5,-323"/>
<text text-anchor="start" x="80.5" y="-331" font-family="Linux libertine" font-size="10.00">input:</text>
<polygon fill="none" stroke="black" points="118.5,-323 118.5,-344 181.5,-344 181.5,-323 118.5,-323"/>
<text text-anchor="start" x="123.5" y="-331" font-family="Linux libertine" font-size="10.00">(4, 1, 256) </text>
<polygon fill="none" stroke="black" points="70.5,-302 70.5,-323 118.5,-323 118.5,-302 70.5,-302"/>
<text text-anchor="start" x="75.5" y="-310" font-family="Linux libertine" font-size="10.00">output: </text>
<polygon fill="none" stroke="black" points="118.5,-302 118.5,-323 181.5,-323 181.5,-302 118.5,-302"/>
<text text-anchor="start" x="129.5" y="-310" font-family="Linux libertine" font-size="10.00">(1, 256) </text>
</g>
<!-- 3&#45;&gt;4 -->
<g id="edge4" class="edge">
<title>3&#45;&gt;4</title>
<path fill="none" stroke="black" d="M163.23,-379.83C151.48,-370.81 137.48,-360.06 124.91,-350.41"/>
<polygon fill="black" stroke="black" points="126.96,-347.57 116.89,-344.26 122.69,-353.13 126.96,-347.57"/>
</g>
<!-- 5 -->
<g id="node6" class="node">
<title>5</title>
<polygon fill="aliceblue" stroke="transparent" points="380,-344 199,-344 199,-302 380,-302 380,-344"/>
<polygon fill="none" stroke="black" points="199.5,-302 199.5,-344 269.5,-344 269.5,-302 199.5,-302"/>
<text text-anchor="start" x="204.5" y="-326" font-family="Linux libertine" font-size="10.00">__getitem__</text>
<text text-anchor="start" x="216" y="-315" font-family="Linux libertine" font-size="10.00">depth:1</text>
<polygon fill="none" stroke="black" points="269.5,-323 269.5,-344 317.5,-344 317.5,-323 269.5,-323"/>
<text text-anchor="start" x="279.5" y="-331" font-family="Linux libertine" font-size="10.00">input:</text>
<polygon fill="none" stroke="black" points="317.5,-323 317.5,-344 380.5,-344 380.5,-323 317.5,-323"/>
<text text-anchor="start" x="322.5" y="-331" font-family="Linux libertine" font-size="10.00">(4, 1, 256) </text>
<polygon fill="none" stroke="black" points="269.5,-302 269.5,-323 317.5,-323 317.5,-302 269.5,-302"/>
<text text-anchor="start" x="274.5" y="-310" font-family="Linux libertine" font-size="10.00">output: </text>
<polygon fill="none" stroke="black" points="317.5,-302 317.5,-323 380.5,-323 380.5,-302 317.5,-302"/>
<text text-anchor="start" x="328.5" y="-310" font-family="Linux libertine" font-size="10.00">(1, 256) </text>
</g>
<!-- 3&#45;&gt;5 -->
<g id="edge5" class="edge">
<title>3&#45;&gt;5</title>
<path fill="none" stroke="black" d="M216.04,-379.83C227.9,-370.81 242.05,-360.06 254.74,-350.41"/>
<polygon fill="black" stroke="black" points="257,-353.1 262.84,-344.26 252.76,-347.53 257,-353.1"/>
</g>
<!-- 6 -->
<g id="node7" class="node">
<title>6</title>
<polygon fill="aliceblue" stroke="transparent" points="271.5,-266 107.5,-266 107.5,-224 271.5,-224 271.5,-266"/>
<polygon fill="none" stroke="black" points="107.5,-224 107.5,-266 154.5,-266 154.5,-224 107.5,-224"/>
<text text-anchor="start" x="123" y="-248" font-family="Linux libertine" font-size="10.00">cat</text>
<text text-anchor="start" x="112.5" y="-237" font-family="Linux libertine" font-size="10.00">depth:1</text>
<polygon fill="none" stroke="black" points="154.5,-245 154.5,-266 202.5,-266 202.5,-245 154.5,-245"/>
<text text-anchor="start" x="164.5" y="-253" font-family="Linux libertine" font-size="10.00">input:</text>
<polygon fill="none" stroke="black" points="202.5,-245 202.5,-266 271.5,-266 271.5,-245 202.5,-245"/>
<text text-anchor="start" x="207.5" y="-253" font-family="Linux libertine" font-size="10.00">2 x (1, 256) </text>
<polygon fill="none" stroke="black" points="154.5,-224 154.5,-245 202.5,-245 202.5,-224 154.5,-224"/>
<text text-anchor="start" x="159.5" y="-232" font-family="Linux libertine" font-size="10.00">output: </text>
<polygon fill="none" stroke="black" points="202.5,-224 202.5,-245 271.5,-245 271.5,-224 202.5,-224"/>
<text text-anchor="start" x="216.5" y="-232" font-family="Linux libertine" font-size="10.00">(1, 512) </text>
</g>
<!-- 4&#45;&gt;6 -->
<g id="edge6" class="edge">
<title>4&#45;&gt;6</title>
<path fill="none" stroke="black" d="M116.77,-301.83C128.52,-292.81 142.52,-282.06 155.09,-272.41"/>
<polygon fill="black" stroke="black" points="157.31,-275.13 163.11,-266.26 153.04,-269.57 157.31,-275.13"/>
</g>
<!-- 5&#45;&gt;6 -->
<g id="edge7" class="edge">
<title>5&#45;&gt;6</title>
<path fill="none" stroke="black" d="M262.96,-301.83C251.1,-292.81 236.95,-282.06 224.26,-272.41"/>
<polygon fill="black" stroke="black" points="226.24,-269.53 216.16,-266.26 222,-275.1 226.24,-269.53"/>
</g>
<!-- 7 -->
<g id="node8" class="node">
<title>7</title>
<polygon fill="#c1ffc1" stroke="transparent" points="264,-188 115,-188 115,-146 264,-146 264,-188"/>
<polygon fill="none" stroke="black" points="115.5,-146 115.5,-188 165.5,-188 165.5,-146 115.5,-146"/>
<text text-anchor="start" x="120.5" y="-170" font-family="Linux libertine" font-size="10.00">Dropout</text>
<text text-anchor="start" x="122" y="-159" font-family="Linux libertine" font-size="10.00">depth:1</text>
<polygon fill="none" stroke="black" points="165.5,-167 165.5,-188 213.5,-188 213.5,-167 165.5,-167"/>
<text text-anchor="start" x="175.5" y="-175" font-family="Linux libertine" font-size="10.00">input:</text>
<polygon fill="none" stroke="black" points="213.5,-167 213.5,-188 264.5,-188 264.5,-167 213.5,-167"/>
<text text-anchor="start" x="218.5" y="-175" font-family="Linux libertine" font-size="10.00">(1, 512) </text>
<polygon fill="none" stroke="black" points="165.5,-146 165.5,-167 213.5,-167 213.5,-146 165.5,-146"/>
<text text-anchor="start" x="170.5" y="-154" font-family="Linux libertine" font-size="10.00">output: </text>
<polygon fill="none" stroke="black" points="213.5,-146 213.5,-167 264.5,-167 264.5,-146 213.5,-146"/>
<text text-anchor="start" x="218.5" y="-154" font-family="Linux libertine" font-size="10.00">(1, 512) </text>
</g>
<!-- 6&#45;&gt;7 -->
<g id="edge8" class="edge">
<title>6&#45;&gt;7</title>
<path fill="none" stroke="black" d="M189.5,-223.63C189.5,-215.82 189.5,-206.73 189.5,-198.18"/>
<polygon fill="black" stroke="black" points="193,-198.16 189.5,-188.16 186,-198.16 193,-198.16"/>
</g>
<!-- 8 -->
<g id="node9" class="node">
<title>8</title>
<polygon fill="#c1ffc1" stroke="transparent" points="262.5,-110 116.5,-110 116.5,-68 262.5,-68 262.5,-110"/>
<polygon fill="none" stroke="black" points="116.5,-68 116.5,-110 163.5,-110 163.5,-68 116.5,-68"/>
<text text-anchor="start" x="124.5" y="-92" font-family="Linux libertine" font-size="10.00">Linear</text>
<text text-anchor="start" x="121.5" y="-81" font-family="Linux libertine" font-size="10.00">depth:1</text>
<polygon fill="none" stroke="black" points="163.5,-89 163.5,-110 211.5,-110 211.5,-89 163.5,-89"/>
<text text-anchor="start" x="173.5" y="-97" font-family="Linux libertine" font-size="10.00">input:</text>
<polygon fill="none" stroke="black" points="211.5,-89 211.5,-110 262.5,-110 262.5,-89 211.5,-89"/>
<text text-anchor="start" x="216.5" y="-97" font-family="Linux libertine" font-size="10.00">(1, 512) </text>
<polygon fill="none" stroke="black" points="163.5,-68 163.5,-89 211.5,-89 211.5,-68 163.5,-68"/>
<text text-anchor="start" x="168.5" y="-76" font-family="Linux libertine" font-size="10.00">output: </text>
<polygon fill="none" stroke="black" points="211.5,-68 211.5,-89 262.5,-89 262.5,-68 211.5,-68"/>
<text text-anchor="start" x="219.5" y="-76" font-family="Linux libertine" font-size="10.00">(1, 75) </text>
</g>
<!-- 7&#45;&gt;8 -->
<g id="edge9" class="edge">
<title>7&#45;&gt;8</title>
<path fill="none" stroke="black" d="M189.5,-145.63C189.5,-137.82 189.5,-128.73 189.5,-120.18"/>
<polygon fill="black" stroke="black" points="193,-120.16 189.5,-110.16 186,-120.16 193,-120.16"/>
</g>
<!-- 9 -->
<g id="node10" class="node">
<title>9</title>
<polygon fill="lightyellow" stroke="transparent" points="249,-32 130,-32 130,0 249,0 249,-32"/>
<polygon fill="none" stroke="black" points="130.5,0 130.5,-32 207.5,-32 207.5,0 130.5,0"/>
<text text-anchor="start" x="135.5" y="-19" font-family="Linux libertine" font-size="10.00">output&#45;tensor</text>
<text text-anchor="start" x="150.5" y="-8" font-family="Linux libertine" font-size="10.00">depth:0</text>
<polygon fill="none" stroke="black" points="207.5,0 207.5,-32 249.5,-32 249.5,0 207.5,0"/>
<text text-anchor="start" x="212.5" y="-13.5" font-family="Linux libertine" font-size="10.00">(1, 75)</text>
</g>
<!-- 8&#45;&gt;9 -->
<g id="edge10" class="edge">
<title>8&#45;&gt;9</title>
<path fill="none" stroke="black" d="M189.5,-67.84C189.5,-59.89 189.5,-50.66 189.5,-42.26"/>
<polygon fill="black" stroke="black" points="193,-42.24 189.5,-32.24 186,-42.24 193,-42.24"/>
</g>
</g>
</svg>
